<?xml version="1.0" standalone="no"?>
<!DOCTYPE svg PUBLIC "-//W3C//DTD SVG 20010904//EN"
 "http://www.w3.org/TR/2001/REC-SVG-20010904/DTD/svg10.dtd">
<svg version="1.0" xmlns="http://www.w3.org/2000/svg"
 width="640.000000pt" height="640.000000pt" viewBox="0 0 640.000000 640.000000"
 preserveAspectRatio="xMidYMid meet">

<g transform="translate(0.000000,640.000000) scale(0.100000,-0.100000)"
fill="#000000" stroke="none">
<path d="M0 3200 l0 -3200 3200 0 3200 0 0 3200 0 3200 -3200 0 -3200 0 0
-3200z m3475 2580 c106 -18 342 -86 332 -96 -2 -2 -42 5 -88 15 -46 11 -122
25 -169 31 -109 13 -385 13 -475 -1 -38 -6 -94 -14 -124 -18 -35 -5 -59 -15
-68 -27 -14 -18 -13 -62 1 -94 5 -12 -14 -21 -92 -42 -54 -15 -141 -45 -193
-68 -52 -22 -98 -42 -104 -43 -6 -1 -11 40 -13 105 l-3 107 48 24 c111 56 313
108 488 127 113 12 326 3 460 -20z m-189 -110 c418 -34 814 -194 1068 -431 42
-39 75 -73 73 -76 -3 -2 -38 9 -78 25 -41 16 -99 37 -129 47 -31 10 -96 48
-150 86 -163 118 -369 207 -580 254 -41 9 -146 19 -232 22 -156 6 -158 6 -199
36 -37 27 -39 32 -23 38 27 11 103 10 250 -1z m-877 -227 c1 -55 -2 -64 -21
-74 -33 -17 -159 -111 -155 -115 2 -2 44 2 93 9 l89 13 7 -23 c3 -13 9 -52 13
-86 l6 -62 -98 -47 c-126 -60 -326 -179 -428 -256 -44 -33 -83 -57 -88 -53 -4
4 -10 72 -14 152 l-6 144 38 50 c153 203 325 370 490 477 l60 39 7 -53 c3 -29
6 -81 7 -115z m568 -119 c15 -11 28 -25 30 -30 2 -5 -39 -19 -90 -31 -78 -19
-312 -93 -369 -117 -19 -9 -23 3 -33 85 l-6 55 48 2 c26 2 93 13 148 27 55 13
109 26 120 29 43 10 126 -1 152 -20z m1000 -135 l82 -12 53 -64 c87 -105 165
-229 244 -387 41 -82 74 -155 74 -162 0 -9 -17 -7 -62 7 -109 34 -348 78 -484
91 l-132 12 -22 55 c-13 31 -42 94 -66 140 -24 46 -44 88 -44 94 0 22 117 170
159 202 52 39 72 41 198 24z m-931 -38 c-17 -6 -14 -10 18 -29 20 -12 48 -25
61 -28 14 -3 25 -9 25 -13 0 -4 14 -15 31 -25 45 -26 179 -156 179 -172 0 -8
5 -14 10 -14 6 0 10 -7 10 -15 0 -19 0 -19 71 10 l61 24 50 -105 c28 -58 48
-107 45 -110 -3 -3 -56 -12 -118 -20 -236 -31 -471 -91 -674 -173 -55 -22
-103 -37 -107 -33 -10 11 -105 337 -132 452 -21 95 -22 106 -8 118 20 16 299
107 372 121 30 6 64 13 75 15 35 7 51 5 31 -3z m1367 -81 c108 -45 131 -62
187 -142 140 -198 222 -465 237 -768 7 -157 -8 -294 -53 -470 -34 -134 -112
-365 -121 -357 -2 3 -1 73 3 155 l7 151 28 11 c40 17 45 41 15 66 -13 12 -30
24 -37 26 -9 3 -8 40 6 163 16 140 17 174 6 294 -15 157 -26 191 -17 51 4 -60
3 -88 -3 -75 -8 16 -9 13 -9 -18 2 -59 -9 -53 -16 10 -4 32 -15 93 -25 136
-17 71 -17 78 -2 72 30 -12 104 -23 118 -18 24 10 13 33 -29 60 -24 16 -48 32
-54 38 -7 5 -31 22 -55 36 -40 24 -47 35 -78 115 -53 139 -124 273 -214 408
l-84 123 59 -18 c32 -10 91 -32 131 -49z m-1929 -202 c10 -57 41 -186 68 -287
27 -101 47 -185 46 -186 -2 -1 -55 -29 -118 -62 -123 -65 -315 -179 -411 -244
-75 -51 -85 -54 -92 -32 -2 10 -23 79 -44 153 -22 74 -51 189 -63 255 l-23
119 54 49 c79 71 259 188 411 267 73 38 138 70 143 70 6 0 19 -46 29 -102z
m-773 -145 l3 -89 -45 -55 c-24 -30 -56 -70 -72 -89 l-27 -35 6 40 c11 73 42
179 80 269 44 105 51 99 55 -41z m2006 -321 c48 -129 143 -428 143 -450 0 -5
-40 -12 -88 -16 l-88 -6 -45 43 c-25 23 -63 48 -86 55 -45 13 -104 16 -101 5
2 -10 -28 -72 -48 -100 -15 -22 -15 -23 2 -24 11 0 -28 -13 -86 -29 -58 -15
-154 -47 -215 -70 -60 -23 -117 -44 -126 -46 -12 -4 -27 21 -63 107 -52 122
-92 228 -137 357 l-28 84 72 33 c209 97 587 187 808 194 l35 1 51 -138z m271
127 c180 -20 464 -90 490 -121 27 -34 94 -344 91 -421 l-2 -32 -7 35 c-5 24
-8 28 -9 12 0 -12 -8 -25 -16 -28 -8 -4 -15 -11 -15 -16 0 -5 -18 -27 -40 -49
-43 -43 -50 -59 -23 -59 9 0 14 -2 11 -5 -3 -3 -39 3 -79 13 -64 17 -251 52
-356 68 -29 4 -33 10 -48 62 -50 180 -103 350 -136 441 -22 57 -39 105 -39
107 0 7 81 4 178 -7z m-2236 -184 c11 -60 38 -173 60 -249 21 -76 37 -143 35
-149 -1 -5 -34 34 -72 87 -37 53 -72 99 -77 102 -11 7 -10 -146 2 -230 8 -55
8 -72 -3 -85 -35 -40 -27 -90 18 -114 20 -10 33 -32 51 -88 52 -154 153 -340
246 -451 35 -42 38 -51 32 -83 l-6 -36 35 3 c30 2 44 -6 108 -66 136 -123 267
-204 458 -282 l104 -42 -42 -45 -42 -46 -53 19 c-188 64 -377 183 -540 339
-344 331 -506 746 -506 1299 l0 182 28 0 c17 0 47 16 82 43 50 40 55 42 58 23
1 -12 12 -70 24 -131z m948 -262 c34 -98 80 -222 101 -276 22 -53 39 -101 39
-105 0 -5 -17 -16 -37 -26 -78 -37 -281 -163 -391 -243 -63 -46 -116 -82 -118
-80 -27 27 -194 360 -194 387 0 5 14 13 32 19 17 6 29 12 27 14 -2 1 -24 20
-47 42 -31 29 -42 35 -37 20 3 -11 -1 -6 -9 10 -8 17 -15 35 -15 40 -1 11 129
110 239 181 77 50 330 194 341 194 3 0 34 -80 69 -177z m1232 -418 c15 -71 27
-141 27 -155 l-1 -25 -8 25 c-4 14 -8 18 -9 10 -1 -8 -14 -23 -30 -32 -28 -15
-29 -15 -25 0 4 13 2 12 -11 -3 -15 -19 -16 -18 -8 25 13 71 9 124 -10 151
-10 13 -35 47 -57 74 -39 49 -39 50 -17 57 12 3 44 6 72 5 l49 -2 28 -130z
m273 98 c55 -8 109 -20 120 -25 17 -7 17 -8 -4 -4 -16 3 -34 -3 -53 -19 -16
-13 -34 -22 -41 -19 -7 2 -22 -4 -32 -16 -10 -11 -14 -20 -10 -20 5 0 -1 -9
-14 -21 -12 -11 -29 -18 -37 -15 -8 3 -13 2 -10 -3 3 -5 -1 -14 -8 -20 -11
-10 -15 -8 -19 6 -3 13 -5 12 -7 -7 -1 -14 -10 11 -20 55 -9 44 -20 92 -24
106 -8 30 -15 30 159 2z m172 -39 c-3 -3 -12 -4 -19 -1 -8 3 -5 6 6 6 11 1 17
-2 13 -5z m-157 -49 c-7 -8 -17 -15 -22 -15 -6 0 -5 7 2 15 7 8 17 15 22 15 6
0 5 -7 -2 -15z m-2219 -105 c33 -73 105 -210 136 -257 30 -45 6 -22 -28 27
-19 27 -39 50 -46 50 -6 0 -39 30 -72 67 -66 73 -74 102 -50 172 14 39 17 36
60 -59z m1119 70 c-8 -5 -19 -10 -25 -10 -5 0 -3 5 5 10 8 5 20 10 25 10 6 0
3 -5 -5 -10z m-50 -20 c-8 -5 -19 -10 -25 -10 -5 0 -3 5 5 10 8 5 20 10 25 10
6 0 3 -5 -5 -10z m1027 -72 c-3 -8 -6 -5 -6 6 -1 11 2 17 5 13 3 -3 4 -12 1
-19z m-1127 -94 l55 -106 -33 -91 c-19 -51 -43 -118 -54 -149 -20 -55 -23 -58
-54 -58 -18 0 -34 5 -36 12 -4 10 -13 10 -40 2 -27 -9 -39 -8 -53 2 -10 8 -28
11 -41 8 -12 -3 -25 -1 -29 6 -4 6 -16 8 -27 4 -13 -4 -18 -2 -14 4 8 13 -19
23 -41 15 -9 -4 -14 -2 -10 3 3 5 -7 9 -21 8 -15 0 -30 3 -33 8 -3 5 -18 11
-33 12 -27 3 -27 3 -9 -19 10 -12 -10 8 -44 44 -35 36 -63 69 -63 73 0 14 185
150 276 204 83 49 231 124 244 124 3 0 30 -48 60 -106z m1628 -101 l-4 -151
-37 -56 c-20 -31 -40 -56 -44 -56 -9 0 -147 41 -156 47 -4 2 11 25 32 51 52
61 128 188 172 286 41 93 43 88 37 -121z m-207 -304 c38 -7 69 -17 69 -23 0
-29 -272 -258 -334 -282 -17 -6 -18 -1 -11 82 l8 89 60 55 c34 30 68 63 76 73
18 20 38 21 132 6z m-373 -291 l-3 -82 -116 -52 c-163 -74 -156 -74 -207 -13
l-42 51 102 42 c104 42 232 108 243 126 18 28 26 3 23 -72z m-464 -179 c21
-28 36 -52 34 -54 -9 -8 -167 -27 -279 -32 l-126 -6 -79 54 -78 54 200 7 c109
4 215 11 234 16 54 15 53 15 94 -39z m-557 -76 c-6 -5 -187 16 -200 24 -9 5 5
31 33 61 l21 22 75 -51 c42 -28 73 -53 71 -56z"/>
<path d="M4455 3920 c-3 -5 -1 -10 4 -10 6 0 11 5 11 10 0 6 -2 10 -4 10 -3 0
-8 -4 -11 -10z"/>
<path d="M4417 3883 c-10 -10 -8 -23 4 -23 5 0 8 4 5 9 -4 5 0 12 6 14 7 3 8
6 2 6 -6 1 -14 -2 -17 -6z"/>
</g>
</svg>
