<?xml version="1.0" standalone="no"?>
<!DOCTYPE svg PUBLIC "-//W3C//DTD SVG 20010904//EN"
 "http://www.w3.org/TR/2001/REC-SVG-20010904/DTD/svg10.dtd">
<svg version="1.0" xmlns="http://www.w3.org/2000/svg"
 width="250.000000pt" height="249.000000pt" viewBox="0 0 250.000000 249.000000"
 preserveAspectRatio="xMidYMid meet">

<g transform="translate(0.000000,249.000000) scale(0.100000,-0.100000)"
fill="#000000" stroke="none">
<path d="M1135 2484 c-405 -44 -754 -267 -962 -616 -125 -211 -189 -499 -163
-738 56 -528 414 -949 920 -1085 533 -142 1104 90 1390 565 64 107 123 259
151 390 28 135 31 355 5 475 -95 442 -395 792 -804 939 -147 53 -396 85 -537
70z m346 -64 c236 -48 421 -146 597 -314 196 -187 312 -403 358 -670 23 -131
14 -347 -19 -476 -36 -137 -91 -261 -168 -375 -173 -258 -432 -438 -728 -506
-125 -29 -359 -36 -474 -15 -258 49 -479 166 -659 348 -344 349 -436 889 -227
1337 165 354 495 607 884 675 123 22 318 20 436 -4z"/>
<path d="M1128 2389 c-497 -57 -900 -421 -1005 -909 -28 -132 -25 -385 6 -505
78 -299 266 -555 521 -710 462 -279 1020 -215 1411 162 266 257 394 637 334
989 -46 266 -150 468 -336 654 -170 170 -428 291 -684 320 -102 11 -138 11
-247 -1z m60 -112 c19 -32 36 -56 37 -55 1 2 -1 29 -4 61 -5 37 -3 57 3 57 7
0 12 -35 14 -86 4 -100 -1 -101 -52 -11 l-36 62 0 -47 c0 -26 4 -58 10 -72 8
-22 7 -26 -8 -26 -14 0 -17 10 -17 68 0 37 -4 78 -8 90 -8 20 -6 23 9 20 10
-2 34 -29 52 -61z m173 54 c-20 -13 -28 -135 -11 -156 11 -13 7 -15 -24 -15
-37 0 -48 13 -21 24 20 7 22 142 3 149 -7 3 5 6 27 6 28 1 36 -2 26 -8z m-272
-81 c15 -89 8 -110 -34 -110 -30 0 -45 20 -60 83 -7 28 -16 60 -20 70 -5 13
-2 17 15 17 11 0 19 -4 16 -8 -9 -14 25 -140 39 -145 7 -3 20 0 29 6 14 11 14
19 3 74 -7 34 -16 65 -20 69 -11 12 -8 24 6 24 9 0 18 -27 26 -80z m373 15
c-2 -36 -2 -65 1 -65 10 0 57 92 51 101 -3 5 4 9 16 9 21 0 21 0 2 -27 -11
-16 -31 -52 -46 -80 -14 -29 -30 -53 -35 -53 -5 0 -11 41 -13 90 -2 76 -1 90
12 90 13 0 15 -11 12 -65z m205 -1 c15 -9 20 -20 16 -31 -6 -15 -8 -14 -16 5
-9 21 -43 39 -53 29 -3 -2 -6 -17 -7 -33 -2 -25 1 -29 21 -27 26 3 28 -6 7
-33 -12 -16 -14 -17 -15 -3 0 18 -26 33 -34 20 -3 -4 -10 -20 -16 -35 -9 -24
-7 -28 16 -37 19 -6 31 -6 40 2 20 16 25 8 9 -14 -12 -17 -15 -17 -56 -1 -24
10 -45 18 -46 19 -2 1 6 18 16 38 10 20 25 57 32 82 12 42 16 45 39 40 14 -4
35 -13 47 -21z m-879 -36 c-1 -7 15 -44 36 -81 21 -38 36 -71 33 -73 -2 -2
-34 16 -71 41 l-67 46 22 -43 c12 -24 28 -51 37 -61 8 -9 13 -19 11 -20 -46
-36 -69 -47 -69 -33 0 24 -35 39 -50 21 -13 -16 -4 -55 13 -55 8 0 8 -3 -1
-12 -14 -14 -11 -18 -50 68 -46 102 -43 114 16 69 80 -61 105 -76 113 -63 8
12 -45 116 -69 135 -13 11 -13 13 0 18 9 4 40 -9 72 -30 31 -19 56 -33 56 -31
0 9 -44 81 -55 89 -6 4 -5 10 5 17 20 13 21 12 18 -2z m996 -19 c37 -29 35
-67 -4 -82 -29 -11 -35 -26 -33 -85 1 -7 -4 -11 -11 -9 -6 2 -10 21 -8 43 4
61 -6 73 -29 35 -11 -18 -17 -36 -14 -42 8 -11 -6 -12 -24 0 -12 8 -12 12 2
25 8 9 28 43 44 76 15 32 33 59 39 59 6 1 23 -8 38 -20z m136 -91 c22 -24 23
-27 11 -46 -6 -10 -10 -5 -14 17 -5 25 -11 31 -33 31 -28 0 -28 5 -7 -93 6
-33 -11 -57 -41 -57 -29 0 -69 42 -60 63 8 23 27 21 20 -1 -8 -24 25 -55 48
-46 19 7 20 19 4 78 -9 36 -9 48 1 60 19 22 47 20 71 -6z m-440 -36 c175 -53
268 -108 386 -226 58 -59 108 -120 138 -171 55 -95 105 -244 113 -337 4 -43
10 -68 18 -68 6 0 38 23 70 51 31 27 60 48 62 45 11 -11 -9 -113 -30 -156 -16
-31 -40 -56 -76 -80 l-53 -35 4 -140 c3 -131 4 -140 23 -143 11 -1 33 -23 49
-48 16 -25 37 -49 47 -52 17 -7 17 -10 -7 -50 l-25 -42 -138 0 -138 0 -74 -60
c-94 -75 -238 -151 -354 -186 -79 -23 -108 -27 -235 -28 -113 -1 -162 3 -220
18 -156 40 -282 106 -380 201 -30 29 -62 55 -70 58 -8 3 1 6 20 6 30 1 45 -8
97 -57 221 -211 625 -257 928 -107 115 57 239 148 209 153 -13 2 -59 -22 -118
-62 -152 -102 -292 -146 -462 -146 -144 0 -278 31 -399 93 -66 33 -181 120
-166 125 6 2 17 -1 24 -7 18 -15 1045 -17 1060 -2 7 7 80 11 203 11 l192 0 16
25 c9 13 16 27 16 30 0 3 -432 5 -960 5 -849 0 -959 -2 -954 -15 5 -13 120
-15 933 -17 l926 -3 -925 -5 c-509 -3 -918 -8 -910 -12 8 -4 47 -9 85 -11 l70
-3 -82 -2 -82 -2 -25 43 c-23 38 -24 42 -8 45 9 1 28 24 42 49 14 25 29 45 34
44 20 -6 26 30 26 156 l0 133 -38 24 c-21 13 -51 38 -65 56 -27 32 -67 143
-67 186 0 23 3 22 55 -21 49 -40 114 -80 116 -73 0 2 3 17 5 33 34 241 100
389 242 537 124 130 281 218 452 254 94 20 315 12 400 -14z m-839 -165 c-6 -6
-21 4 -39 24 -30 33 -30 34 -51 15 l-21 -19 22 -24 c12 -13 28 -23 36 -23 7 0
12 -6 10 -12 -8 -23 -25 -14 -88 46 -42 40 -58 62 -51 69 7 7 17 2 31 -16 25
-31 28 -32 54 -12 19 15 19 15 -4 40 -12 13 -27 22 -31 19 -12 -7 -11 10 1 22
7 7 31 -11 75 -55 40 -40 62 -68 56 -74z m1393 99 c28 -25 36 -47 10 -26 -13
11 -23 5 -69 -40 -42 -41 -52 -57 -43 -67 17 -21 -4 -15 -29 9 -24 22 -33 49
-10 30 10 -9 26 1 66 42 30 30 50 59 47 65 -12 18 1 12 28 -13z m-1602 -84 c2
-5 27 -26 56 -46 56 -40 65 -65 35 -98 -23 -25 -32 -23 -96 22 -30 22 -61 40
-67 40 -10 0 -10 3 0 15 10 13 18 10 54 -19 64 -52 85 -61 103 -43 10 10 12
20 7 30 -14 25 -103 89 -114 82 -11 -7 -14 8 -3 18 9 10 21 9 25 -1z m1710
-44 c20 -28 20 -31 3 -46 -16 -16 -17 -16 -11 5 4 12 2 24 -4 28 -12 7 -105
-58 -119 -83 -9 -16 -11 -15 -25 3 -13 18 -13 20 2 24 9 1 41 21 70 43 51 38
59 58 24 58 -14 0 -15 2 -2 10 17 10 31 1 62 -42z m-1755 -113 c30 -25 62 -49
71 -54 31 -17 4 -22 -33 -7 -53 22 -55 20 -12 -15 21 -17 36 -33 34 -35 -2 -2
-24 3 -48 12 -24 9 -63 22 -86 28 -32 9 -40 15 -33 26 6 10 12 11 22 3 7 -5
29 -15 48 -21 l35 -12 -28 25 c-15 14 -35 25 -43 25 -8 0 -14 7 -14 15 0 19
-1 19 57 -5 l48 -20 -35 30 c-19 16 -38 30 -42 30 -9 0 -11 20 -2 20 3 0 30
-20 61 -45z m1813 24 c0 -5 -15 -23 -32 -39 l-33 -29 30 -1 c17 0 37 4 45 10
9 6 17 5 22 -3 13 -20 9 -24 -20 -19 -37 5 -107 -14 -127 -35 -14 -14 -18 -14
-26 -2 -11 18 -12 32 -1 25 15 -9 68 31 98 72 26 37 44 45 44 21z m-482 -1397
c2 -6 -2 -20 -8 -31 -8 -16 -8 -21 1 -21 7 0 9 -9 5 -25 -4 -17 -2 -25 6 -25
17 0 17 -62 1 -67 -7 -3 -13 3 -13 13 0 14 -3 15 -12 6 -18 -18 -32 -14 -17 5
14 16 21 65 8 57 -4 -2 -13 3 -20 12 -11 14 -10 18 6 31 16 13 16 14 3 10 -22
-8 -32 8 -19 31 11 20 52 23 59 4z m-754 -31 c3 -5 -4 -20 -15 -35 -11 -14
-18 -26 -14 -26 4 0 -1 -7 -9 -16 -17 -17 -22 -49 -6 -39 15 9 12 -8 -6 -33
-20 -29 -34 -28 -34 2 0 23 -4 25 -52 28 -32 2 -53 8 -56 17 -3 9 2 11 17 6
15 -5 21 -2 21 9 0 9 5 16 11 16 6 0 9 -7 5 -15 -4 -11 2 -15 22 -14 18 1 21
3 9 6 -10 3 -16 11 -13 18 2 7 -4 15 -15 18 -10 3 -19 11 -19 17 0 7 7 10 16
6 9 -3 33 -9 55 -12 37 -6 40 -5 50 25 11 31 23 39 33 22z m-54 -31 c0 -5 -6
-10 -14 -10 -8 0 -18 5 -21 10 -3 6 3 10 14 10 12 0 21 -4 21 -10z m736 -26
c-5 -13 -10 -14 -18 -6 -6 6 -8 18 -4 28 5 13 10 14 18 6 6 -6 8 -18 4 -28z
m-675 -17 c-8 -8 -11 -7 -11 4 0 20 13 34 18 19 3 -7 -1 -17 -7 -23z m199 -1
c0 -8 -4 -18 -10 -21 -5 -3 -10 3 -10 14 0 12 5 21 10 21 6 0 10 -6 10 -14z
m81 -10 c-7 -8 -10 -20 -6 -26 4 -6 1 -18 -7 -27 -10 -13 -10 -17 0 -20 15 -6
16 -23 0 -23 -6 0 -20 -8 -31 -17 -19 -17 -20 -17 -15 10 3 15 2 27 -2 27 -4
0 -7 13 -7 28 0 22 8 33 36 48 40 22 50 22 32 0z m419 -11 c-7 -8 -19 -15 -28
-15 -12 0 -10 6 9 26 24 26 41 16 19 -11z m-204 -12 c4 -10 6 -24 5 -30 -1 -7
3 -13 9 -13 5 0 10 -5 10 -11 0 -6 -6 -9 -12 -6 -7 2 -21 -2 -30 -11 -20 -17
-25 -3 -5 17 10 11 9 13 -5 8 -21 -8 -24 8 -4 16 9 4 12 14 9 26 -6 25 12 28
23 4z m-302 -22 c3 -5 -1 -22 -9 -37 -8 -16 -15 -35 -15 -41 0 -7 -4 -13 -10
-13 -13 0 -13 14 2 61 11 38 21 48 32 30z m76 -82 c0 -5 -4 -9 -10 -9 -5 0
-10 7 -10 16 0 8 5 12 10 9 6 -3 10 -10 10 -16z"/>
<path d="M632 2059 c6 -16 15 -28 21 -26 21 7 18 24 -7 40 l-25 17 11 -31z"/>
<path d="M1738 2181 c-18 -33 -15 -41 19 -41 27 0 41 25 26 48 -16 26 -27 24
-45 -7z"/>
<path d="M1120 2073 c-323 -54 -583 -288 -674 -605 -13 -46 -26 -109 -30 -141
-6 -52 -5 -58 11 -55 14 2 20 17 25 62 26 208 130 401 282 526 91 74 163 114
276 152 88 29 105 32 235 32 117 1 153 -3 219 -22 157 -45 315 -145 407 -256
99 -121 175 -295 186 -426 5 -56 9 -70 23 -70 14 0 15 8 9 68 -45 424 -415
746 -849 741 -52 -1 -106 -4 -120 -6z"/>
<path d="M1235 1850 c-19 -8 -19 -9 3 -9 12 -1 22 4 22 9 0 6 -1 10 -2 9 -2 0
-12 -4 -23 -9z"/>
<path d="M1212 1783 c0 -27 -1 -52 -2 -58 -1 -5 -2 -27 -1 -47 1 -35 3 -38 30
-38 21 0 30 6 35 23 9 34 7 76 -5 98 -7 15 -7 24 1 34 17 20 4 35 -29 35 -27
0 -29 -2 -29 -47z"/>
<path d="M1067 1643 c-11 -10 -8 -51 3 -58 17 -11 11 -54 -9 -65 -32 -16 -66
-12 -105 15 l-37 25 7 -48 c8 -62 -7 -76 -73 -70 -26 3 -57 8 -68 13 -19 8
-19 7 2 -26 12 -19 35 -42 52 -52 29 -18 31 -18 88 10 l58 28 270 0 c258 0
272 -1 322 -23 62 -26 91 -18 123 33 26 42 25 50 -2 31 -27 -19 -77 -21 -114
-4 -24 11 -26 16 -21 59 l6 48 -36 -25 c-38 -26 -91 -32 -111 -12 -15 15 -16
54 -2 63 16 10 12 55 -5 62 -9 3 -23 -1 -33 -9 -24 -21 -256 -22 -273 -2 -12
15 -31 18 -42 7z"/>
<path d="M526 1349 c-28 -60 -63 -92 -113 -105 -34 -9 -64 2 -116 41 -52 40
-57 33 -26 -35 22 -48 51 -85 84 -103 14 -8 154 -14 460 -17 l440 -6 -427 -2
c-373 -2 -428 -4 -428 -17 0 -13 28 -15 190 -15 120 0 190 -4 190 -10 0 -6
-70 -10 -190 -10 l-190 0 0 -140 c0 -140 0 -140 -23 -140 -17 0 -28 -10 -40
-35 l-17 -35 234 0 234 0 17 43 c9 23 19 47 22 54 2 6 -4 13 -14 16 -10 3 113
6 272 7 218 1 282 5 258 12 -32 11 -33 12 -33 69 l0 59 -60 0 -60 0 0 -65 c0
-38 -4 -65 -10 -65 -7 0 -10 27 -8 73 l3 72 63 3 c42 2 69 -2 79 -10 14 -11
15 -11 11 2 -4 12 -22 15 -84 15 l-79 0 -3 -77 -3 -78 -59 0 -60 0 0 78 c0 69
3 80 25 105 l26 27 159 0 158 0 26 -31 c23 -27 26 -39 26 -110 l0 -79 138 -2
c75 0 122 -3 104 -5 -21 -3 -32 -9 -29 -16 3 -7 13 -31 22 -54 l17 -43 234 0
c129 0 234 2 234 5 0 20 -48 75 -66 75 -18 0 -22 8 -28 53 -3 28 -6 89 -6 133
0 75 -2 82 -21 87 -12 3 -93 3 -180 0 -117 -5 -159 -3 -159 5 0 9 51 12 180
12 153 0 180 2 180 15 0 13 -55 15 -412 18 l-413 2 419 3 419 2 48 31 c34 22
55 45 73 82 38 76 33 84 -24 42 -96 -70 -167 -52 -225 57 -17 31 -33 60 -37
63 -4 4 -20 -20 -37 -53 -61 -122 -136 -142 -236 -65 l-48 36 7 -29 c4 -16 19
-47 34 -69 15 -22 31 -45 35 -52 6 -10 -81 -13 -444 -13 l-453 0 26 28 c29 31
46 62 58 103 11 36 1 37 -31 3 -84 -90 -180 -67 -244 61 -16 30 -31 55 -34 54
-3 0 -19 -27 -35 -60z m434 -269 c0 -6 -30 -10 -70 -10 -40 0 -70 4 -70 10 0
6 30 10 70 10 40 0 70 -4 70 -10z m260 0 c0 -6 -35 -10 -85 -10 -50 0 -85 4
-85 10 0 6 35 10 85 10 50 0 85 -4 85 -10z m230 0 c0 -6 -35 -10 -84 -10 -47
0 -88 5 -91 10 -4 6 27 10 84 10 54 0 91 -4 91 -10z m220 0 c0 -6 -30 -10 -71
-10 -44 0 -68 4 -64 10 3 6 35 10 71 10 36 0 64 -4 64 -10z m-880 -125 c0 -63
-4 -105 -10 -105 -6 0 -10 42 -10 105 0 63 4 105 10 105 6 0 10 -42 10 -105z
m153 77 c25 -26 27 -35 27 -105 l0 -77 -74 0 -74 0 -7 41 c-11 64 2 125 32
149 35 28 64 25 96 -8z m75 -87 c-2 -47 -7 -86 -13 -88 -11 -2 -19 145 -10
183 13 49 26 -6 23 -95z m482 10 c0 -63 -4 -105 -10 -105 -11 0 -14 192 -3
203 12 13 13 7 13 -98z m155 74 c23 -29 26 -38 23 -103 l-3 -71 -71 -3 -71 -3
-7 51 c-17 127 63 207 129 129z m75 -74 c0 -87 -3 -105 -15 -105 -12 0 -15 18
-15 105 0 87 3 105 15 105 12 0 15 -18 15 -105z m-1023 62 c-4 -13 -46 -17
-53 -5 -10 15 5 25 31 20 14 -2 24 -9 22 -15z m-197 -3 c0 -11 -8 -14 -27 -12
-39 4 -42 28 -4 28 21 0 31 -5 31 -16z m100 1 c0 -9 -9 -15 -25 -15 -16 0 -25
6 -25 15 0 9 9 15 25 15 16 0 25 -6 25 -15z m1220 -1 c0 -11 -8 -14 -27 -12
-39 4 -42 28 -4 28 21 0 31 -5 31 -16z m108 4 c-7 -20 -58 -23 -58 -4 0 11 10
16 31 16 20 0 29 -4 27 -12z m92 -4 c0 -11 -8 -14 -27 -12 -39 4 -42 28 -4 28
21 0 31 -5 31 -16z"/>
<path d="M1053 1393 c-28 -11 -11 -23 32 -23 45 0 60 12 29 24 -18 7 -43 7
-61 -1z"/>
<path d="M1155 1390 c-3 -5 0 -13 9 -16 21 -8 71 -1 71 11 0 14 -72 19 -80 5z"/>
<path d="M1265 1390 c-3 -5 0 -13 9 -16 21 -8 71 -1 71 11 0 14 -72 19 -80 5z"/>
<path d="M1387 1393 c-16 -15 -5 -23 32 -23 42 0 62 14 35 24 -21 8 -59 8 -67
-1z"/>
<path d="M953 1380 c-26 -10 -31 -30 -9 -30 24 0 66 19 66 30 0 12 -27 12 -57
0z"/>
<path d="M1500 1380 c0 -12 42 -30 71 -30 30 0 23 17 -12 29 -40 14 -59 14
-59 1z"/>
<path d="M635 1310 c3 -6 48 -10 100 -10 52 0 97 4 100 10 4 6 -32 10 -100 10
-68 0 -104 -4 -100 -10z"/>
<path d="M890 1310 c0 -6 125 -10 355 -10 230 0 355 4 355 10 0 6 -125 10
-355 10 -230 0 -355 -4 -355 -10z"/>
<path d="M1645 1310 c3 -6 50 -10 105 -10 55 0 102 4 105 10 4 6 -33 10 -105
10 -72 0 -109 -4 -105 -10z"/>
<path d="M880 1278 c0 -5 162 -8 360 -8 198 0 360 3 360 8 0 4 -162 7 -360 7
-198 0 -360 -3 -360 -7z"/>
<path d="M697 1273 c18 -2 50 -2 70 0 21 2 7 4 -32 4 -38 0 -55 -2 -38 -4z"/>
<path d="M1717 1273 c18 -2 50 -2 70 0 21 2 7 4 -32 4 -38 0 -55 -2 -38 -4z"/>
<path d="M866 1244 c-9 -24 -7 -74 3 -74 5 0 11 20 13 45 3 45 -4 59 -16 29z"/>
<path d="M900 1215 c0 -25 5 -45 10 -45 6 0 10 20 10 45 0 25 -4 45 -10 45 -5
0 -10 -20 -10 -45z"/>
<path d="M935 1215 c0 -29 4 -45 13 -45 8 0 12 16 12 45 0 29 -4 45 -12 45 -9
0 -13 -16 -13 -45z"/>
<path d="M970 1214 c0 -28 4 -44 11 -42 6 2 10 7 10 11 -1 4 -1 23 -1 42 0 19
-4 35 -10 35 -5 0 -10 -21 -10 -46z"/>
<path d="M1010 1215 c0 -25 5 -45 10 -45 6 0 10 20 10 45 0 25 -4 45 -10 45
-5 0 -10 -20 -10 -45z"/>
<path d="M1050 1215 c0 -25 5 -45 10 -45 6 0 10 20 10 45 0 25 -4 45 -10 45
-5 0 -10 -20 -10 -45z"/>
<path d="M1080 1215 c0 -33 4 -45 15 -45 11 0 15 12 15 45 0 33 -4 45 -15 45
-11 0 -15 -12 -15 -45z"/>
<path d="M1120 1215 c0 -25 5 -45 10 -45 6 0 10 20 10 45 0 25 -4 45 -10 45
-5 0 -10 -20 -10 -45z"/>
<path d="M1160 1215 c0 -25 5 -45 10 -45 6 0 10 20 10 45 0 25 -4 45 -10 45
-5 0 -10 -20 -10 -45z"/>
<path d="M1200 1215 c0 -25 5 -45 10 -45 6 0 10 20 10 45 0 25 -4 45 -10 45
-5 0 -10 -20 -10 -45z"/>
<path d="M1230 1215 c0 -33 4 -45 15 -45 11 0 15 12 15 45 0 33 -4 45 -15 45
-11 0 -15 -12 -15 -45z"/>
<path d="M1270 1215 c0 -25 5 -45 10 -45 6 0 10 20 10 45 0 25 -4 45 -10 45
-5 0 -10 -20 -10 -45z"/>
<path d="M1310 1215 c0 -25 5 -45 10 -45 6 0 10 20 10 45 0 25 -4 45 -10 45
-5 0 -10 -20 -10 -45z"/>
<path d="M1340 1215 c0 -33 4 -45 15 -45 11 0 15 12 15 45 0 33 -4 45 -15 45
-11 0 -15 -12 -15 -45z"/>
<path d="M1380 1215 c0 -25 5 -45 10 -45 6 0 10 20 10 45 0 25 -4 45 -10 45
-5 0 -10 -20 -10 -45z"/>
<path d="M1420 1215 c0 -25 5 -45 10 -45 6 0 10 20 10 45 0 25 -4 45 -10 45
-5 0 -10 -20 -10 -45z"/>
<path d="M1458 1215 c2 -25 8 -45 13 -45 5 0 9 20 9 45 0 29 -4 45 -13 45 -8
0 -11 -14 -9 -45z"/>
<path d="M1490 1215 c0 -33 4 -45 15 -45 11 0 15 12 15 45 0 33 -4 45 -15 45
-11 0 -15 -12 -15 -45z"/>
<path d="M1530 1215 c0 -25 5 -45 10 -45 6 0 10 20 10 45 0 25 -4 45 -10 45
-5 0 -10 -20 -10 -45z"/>
<path d="M1570 1215 c0 -25 5 -45 10 -45 6 0 10 20 10 45 0 25 -4 45 -10 45
-5 0 -10 -20 -10 -45z"/>
<path d="M1600 1215 c0 -33 4 -45 15 -45 16 0 21 43 9 74 -12 31 -24 16 -24
-29z"/>
<path d="M830 1190 c-9 -16 -8 -20 5 -20 8 0 15 9 15 20 0 11 -2 20 -5 20 -2
0 -9 -9 -15 -20z"/>
<path d="M1640 1190 c0 -11 7 -20 15 -20 13 0 14 4 5 20 -6 11 -13 20 -15 20
-3 0 -5 -9 -5 -20z"/>
<path d="M1078 823 c101 -2 263 -2 360 0 97 1 15 2 -183 2 -198 0 -278 -1
-177 -2z"/>
<path d="M890 798 c0 -5 162 -8 360 -8 198 0 360 3 360 8 0 4 -162 7 -360 7
-198 0 -360 -3 -360 -7z"/>
<path d="M1068 773 c106 -2 277 -2 380 0 103 1 16 2 -193 2 -209 0 -293 -1
-187 -2z"/>
<path d="M870 748 c0 -5 173 -8 385 -8 242 0 385 4 385 10 0 6 -141 9 -385 7
-212 -1 -385 -5 -385 -9z"/>
<path d="M1048 723 c111 -2 293 -2 405 0 111 1 20 2 -203 2 -223 0 -314 -1
-202 -2z"/>
<path d="M1052 540 c0 -19 2 -27 5 -17 2 9 2 25 0 35 -3 9 -5 1 -5 -18z"/>
<path d="M1175 540 c10 -11 20 -20 23 -20 3 0 -3 9 -13 20 -10 11 -20 20 -23
20 -3 0 3 -9 13 -20z"/>
<path d="M1301 544 c0 -11 3 -14 6 -6 3 7 2 16 -1 19 -3 4 -6 -2 -5 -13z"/>
<path d="M1326 533 c-6 -14 -5 -15 5 -6 7 7 10 15 7 18 -3 3 -9 -2 -12 -12z"/>
<path d="M1455 530 c3 -5 8 -10 11 -10 2 0 4 5 4 10 0 6 -5 10 -11 10 -5 0 -7
-4 -4 -10z"/>
<path d="M870 301 c0 -5 7 -11 15 -15 8 -3 15 -1 15 3 0 5 -7 11 -15 15 -8 3
-15 1 -15 -3z"/>
<path d="M1205 230 c-3 -5 -1 -10 4 -10 6 0 11 5 11 10 0 6 -2 10 -4 10 -3 0
-8 -4 -11 -10z"/>
</g>
</svg>
